<svg version="1.1" id="Layer_1" xmlns="http://www.w3.org/2000/svg" xmlns:xlink="http://www.w3.org/1999/xlink" x="0px" y="0px"
	 width="100%" viewBox="0 0 512 512" enable-background="new 0 0 512 512" xml:space="preserve">
<path fill="#7ED63F" opacity="1.000000" stroke="none" 
	d="
M287.000000,513.000000 
	C266.979095,513.000000 246.958206,513.000000 226.667923,512.608643 
	C225.721558,511.820343 225.069977,511.130646 224.363892,511.069427 
	C206.861389,509.551239 189.921921,505.188110 173.424271,499.585846 
	C152.848190,492.598572 133.427460,482.938293 115.289673,470.819489 
	C95.575066,457.647095 78.067497,442.055298 62.541592,424.123138 
	C49.414238,408.961273 38.088039,392.610168 29.010296,374.769135 
	C15.525597,348.266815 6.022872,320.473846 2.904824,290.714722 
	C2.838691,290.083557 1.659794,289.568970 1.000002,289.000000 
	C1.000000,267.645782 1.000000,246.291550 1.381928,224.696793 
	C2.151426,223.946320 2.784457,223.482407 2.889966,222.919586 
	C4.632903,213.622223 5.937751,204.226318 8.069722,195.021317 
	C14.837083,165.802567 27.142128,138.871857 43.693268,114.013802 
	C56.846851,94.258522 72.886398,76.909615 90.975677,61.441334 
	C105.207130,49.271919 120.527267,38.725609 137.063965,30.075607 
	C164.148605,15.908185 192.705002,6.139398 223.287674,2.904777 
	C223.918549,2.838052 224.431854,1.659736 225.000000,1.000001 
	C246.020889,1.000000 267.041779,1.000000 288.304535,1.383251 
	C292.981995,2.523951 297.445129,3.148368 301.848694,4.060560 
	C329.244904,9.735665 355.585266,18.272976 380.174896,31.968060 
	C406.854218,46.826969 430.207642,65.573219 450.277466,88.635109 
	C466.041199,106.748947 478.900940,126.561584 489.138062,148.262955 
	C500.500092,172.348892 507.827026,197.498306 511.081512,223.892639 
	C511.176392,224.662247 512.336548,225.300491 513.000000,226.000000 
	C513.000000,246.020889 513.000000,266.041779 512.609985,286.314758 
	C511.814270,287.576782 511.203918,288.553925 511.035736,289.602020 
	C509.845520,297.019440 509.179352,304.548615 507.539551,311.861267 
	C501.692688,337.935303 492.126373,362.597748 478.696899,385.745575 
	C468.884705,402.658417 457.458862,418.432129 443.849884,432.408600 
	C434.663300,441.843353 424.602631,450.487610 414.463837,458.921509 
	C395.729980,474.505127 374.542816,486.018341 351.970490,495.048309 
	C331.596832,503.198669 310.624878,508.978119 288.713196,511.096619 
	C288.086639,511.157196 287.568604,512.340271 287.000000,513.000000 
M340.391113,416.180389 
	C350.621735,416.160889 350.997620,416.114319 354.183594,406.232117 
	C357.870117,394.797333 364.252808,384.092926 363.286865,371.075684 
	C374.015472,371.075684 384.145447,371.113312 394.274994,371.061096 
	C400.031525,371.031433 402.509583,369.130188 403.714752,363.526672 
	C409.275970,337.669189 414.784607,311.800232 420.239929,285.920197 
	C421.722778,278.885620 418.571259,275.018188 411.392944,274.984833 
	C397.234344,274.919037 383.075195,274.963928 368.916290,274.963074 
	C367.152344,274.962982 365.388367,274.963074 363.174622,274.963074 
	C363.174622,270.147125 363.189789,266.014557 363.171448,261.882141 
	C363.134644,253.592773 360.812531,251.261139 352.407043,251.258163 
	C306.598755,251.241928 260.790497,251.243408 214.982224,251.256546 
	C206.273148,251.259048 203.961456,253.558762 203.958481,262.153381 
	C203.947906,292.803284 204.619095,323.472900 203.710327,354.095825 
	C203.145264,373.137268 205.877823,391.053253 213.579300,408.402771 
	C216.649460,415.319000 217.236237,416.173523 224.981064,416.175507 
	C263.126862,416.185242 301.272644,416.180237 340.391113,416.180389 
M234.499893,243.754959 
	C253.448776,243.754959 272.397675,243.754959 291.523560,243.754959 
	C291.523560,234.791397 291.523560,226.455933 291.523560,218.591553 
	C225.259567,218.591553 159.382996,218.591553 93.344025,218.591553 
	C93.344025,231.018509 93.344025,243.783554 93.344025,257.184113 
	C95.359016,257.184113 97.141022,257.184082 98.923027,257.184113 
	C118.088585,257.184509 137.254166,257.171387 156.419693,257.193085 
	C162.657211,257.200134 163.656906,258.192902 163.660034,264.450226 
	C163.677399,299.281555 163.676529,334.112885 163.660797,368.944214 
	C163.657776,375.634338 163.016098,376.234711 156.093414,376.239655 
	C137.094513,376.253174 118.095604,376.244812 99.096703,376.245117 
	C97.187424,376.245148 95.278152,376.245117 93.084694,376.245117 
	C93.084694,386.466187 93.075531,395.789093 93.087334,405.112000 
	C93.098663,414.064484 95.241150,416.177643 104.371574,416.180298 
	C137.203018,416.189850 170.034454,416.187042 202.865891,416.175110 
	C204.467163,416.174530 206.068405,416.043335 208.157578,415.951538 
	C204.753784,406.404541 201.440750,397.372986 198.341034,388.268829 
	C197.331497,385.303741 196.273346,382.151276 196.262695,379.080963 
	C196.124588,339.250397 196.103745,299.419037 196.220932,259.588379 
	C196.248993,250.051193 202.821609,243.902634 212.501328,243.777191 
	C219.499756,243.686493 226.500290,243.756577 234.499893,243.754959 
M105.745056,211.670151 
	C163.383987,211.670181 221.022903,211.670517 278.661835,211.668701 
	C280.327545,211.668640 282.001434,211.747742 283.657532,211.615219 
	C290.187439,211.092682 293.252625,206.672577 290.967316,200.567505 
	C283.970154,181.875076 276.804626,163.245636 269.696411,144.594833 
	C268.226227,140.737305 265.497437,138.892792 261.273895,138.896622 
	C213.297012,138.940155 165.320053,138.938416 117.343155,138.901123 
	C112.664192,138.897491 109.823723,140.997711 108.631882,145.479187 
	C103.630287,164.285721 98.562477,183.074890 93.643684,201.903015 
	C92.373230,206.766052 94.917778,210.473572 99.842224,211.390244 
	C101.461502,211.691681 103.156158,211.588165 105.745056,211.670151 
M120.500000,264.997620 
	C111.428169,264.997620 102.356339,264.997620 93.404022,264.997620 
	C93.404022,299.947693 93.404022,334.022217 93.404022,368.365417 
	C114.289902,368.365417 134.856613,368.365417 155.662750,368.365417 
	C155.662750,333.855804 155.662750,299.651581 155.662750,264.997620 
	C144.079010,264.997620 132.789505,264.997620 120.500000,264.997620 
M198.499985,131.076981 
	C222.200287,131.076981 245.900589,131.076981 269.834381,131.076981 
	C269.662018,131.909744 269.786560,131.585831 269.787842,131.261414 
	C269.815735,124.101898 269.842102,116.942337 269.843994,109.782784 
	C269.846741,99.474815 267.943359,97.569611 257.597015,97.568268 
	C211.973038,97.562332 166.349060,97.563354 120.725090,97.575790 
	C118.897415,97.576286 117.043915,97.550888 115.247505,97.828796 
	C111.510551,98.406914 109.036255,100.678589 108.951523,104.456390 
	C108.743095,113.748116 108.883324,123.047668 108.883324,131.076981 
	C138.667099,131.076981 168.083542,131.076981 198.499985,131.076981 
z"/>
<path fill="#000000" opacity="1.000000" stroke="none" 
	d="
M287.468658,513.000000 
	C287.568604,512.340271 288.086639,511.157196 288.713196,511.096619 
	C310.624878,508.978119 331.596832,503.198669 351.970490,495.048309 
	C374.542816,486.018341 395.729980,474.505127 414.463837,458.921509 
	C424.602631,450.487610 434.663300,441.843353 443.849884,432.408600 
	C457.458862,418.432129 468.884705,402.658417 478.696899,385.745575 
	C492.126373,362.597748 501.692688,337.935303 507.539551,311.861267 
	C509.179352,304.548615 509.845520,297.019440 511.035736,289.602020 
	C511.203918,288.553925 511.814270,287.576782 512.609985,286.783386 
	C513.000000,362.260376 513.000000,437.520752 513.000000,513.000000 
	C437.979248,513.000000 362.958282,513.000000 287.468658,513.000000 
z"/>
<path fill="#000000" opacity="1.000000" stroke="none" 
	d="
M513.000000,225.531342 
	C512.336548,225.300491 511.176392,224.662247 511.081512,223.892639 
	C507.827026,197.498306 500.500092,172.348892 489.138062,148.262955 
	C478.900940,126.561584 466.041199,106.748947 450.277466,88.635109 
	C430.207642,65.573219 406.854218,46.826969 380.174896,31.968060 
	C355.585266,18.272976 329.244904,9.735665 301.848694,4.060560 
	C297.445129,3.148368 292.981995,2.523951 288.773193,1.383251 
	C363.593842,1.000000 438.187714,1.000000 513.000000,1.000000 
	C513.000000,75.687416 513.000000,150.375046 513.000000,225.531342 
z"/>
<path fill="#000000" opacity="1.000000" stroke="none" 
	d="
M1.000002,289.468658 
	C1.659794,289.568970 2.838691,290.083557 2.904824,290.714722 
	C6.022872,320.473846 15.525597,348.266815 29.010296,374.769135 
	C38.088039,392.610168 49.414238,408.961273 62.541592,424.123138 
	C78.067497,442.055298 95.575066,457.647095 115.289673,470.819489 
	C133.427460,482.938293 152.848190,492.598572 173.424271,499.585846 
	C189.921921,505.188110 206.861389,509.551239 224.363892,511.069427 
	C225.069977,511.130646 225.721558,511.820343 226.199265,512.608643 
	C151.073135,513.000000 76.146263,513.000000 1.000000,513.000000 
	C1.000000,438.645905 1.000000,364.291626 1.000002,289.468658 
z"/>
<path fill="#000000" opacity="1.000000" stroke="none" 
	d="
M224.531342,1.000001 
	C224.431854,1.659736 223.918549,2.838052 223.287674,2.904777 
	C192.705002,6.139398 164.148605,15.908185 137.063965,30.075607 
	C120.527267,38.725609 105.207130,49.271919 90.975677,61.441334 
	C72.886398,76.909615 56.846851,94.258522 43.693268,114.013802 
	C27.142128,138.871857 14.837083,165.802567 8.069722,195.021317 
	C5.937751,204.226318 4.632903,213.622223 2.889966,222.919586 
	C2.784457,223.482407 2.151426,223.946320 1.381928,224.228134 
	C1.000000,149.739456 1.000000,75.478920 1.000000,1.000000 
	C75.354088,1.000000 149.708389,1.000000 224.531342,1.000001 
z"/>
<path fill="#FFFFFE" opacity="1.000000" stroke="none" 
	d="
M339.904785,416.180420 
	C301.272644,416.180237 263.126862,416.185242 224.981064,416.175507 
	C217.236237,416.173523 216.649460,415.319000 213.579300,408.402771 
	C205.877823,391.053253 203.145264,373.137268 203.710327,354.095825 
	C204.619095,323.472900 203.947906,292.803284 203.958481,262.153381 
	C203.961456,253.558762 206.273148,251.259048 214.982224,251.256546 
	C260.790497,251.243408 306.598755,251.241928 352.407043,251.258163 
	C360.812531,251.261139 363.134644,253.592773 363.171448,261.882141 
	C363.189789,266.014557 363.174622,270.147125 363.174622,274.963074 
	C365.388367,274.963074 367.152344,274.962982 368.916290,274.963074 
	C383.075195,274.963928 397.234344,274.919037 411.392944,274.984833 
	C418.571259,275.018188 421.722778,278.885620 420.239929,285.920197 
	C414.784607,311.800232 409.275970,337.669189 403.714752,363.526672 
	C402.509583,369.130188 400.031525,371.031433 394.274994,371.061096 
	C384.145447,371.113312 374.015472,371.075684 363.286865,371.075684 
	C364.252808,384.092926 357.870117,394.797333 354.183594,406.232117 
	C350.997620,416.114319 350.621735,416.160889 339.904785,416.180420 
M402.712128,290.792816 
	C393.599945,290.607635 384.488159,290.399139 375.375397,290.248138 
	C371.451294,290.183136 367.525238,290.237244 363.587769,290.237244 
	C363.587769,312.528717 363.587769,334.036469 363.587769,355.877960 
	C371.642517,355.877960 379.281128,355.991272 386.908630,355.750977 
	C388.003113,355.716522 389.756958,354.131378 390.003632,353.001404 
	C394.466553,332.559937 398.744812,312.078125 402.712128,290.792816 
z"/>
<path fill="#FEFFFD" opacity="1.000000" stroke="none" 
	d="
M233.999878,243.754944 
	C226.500290,243.756577 219.499756,243.686493 212.501328,243.777191 
	C202.821609,243.902634 196.248993,250.051193 196.220932,259.588379 
	C196.103745,299.419037 196.124588,339.250397 196.262695,379.080963 
	C196.273346,382.151276 197.331497,385.303741 198.341034,388.268829 
	C201.440750,397.372986 204.753784,406.404541 208.157578,415.951538 
	C206.068405,416.043335 204.467163,416.174530 202.865891,416.175110 
	C170.034454,416.187042 137.203018,416.189850 104.371574,416.180298 
	C95.241150,416.177643 93.098663,414.064484 93.087334,405.112000 
	C93.075531,395.789093 93.084694,386.466187 93.084694,376.245117 
	C95.278152,376.245117 97.187424,376.245148 99.096703,376.245117 
	C118.095604,376.244812 137.094513,376.253174 156.093414,376.239655 
	C163.016098,376.234711 163.657776,375.634338 163.660797,368.944214 
	C163.676529,334.112885 163.677399,299.281555 163.660034,264.450226 
	C163.656906,258.192902 162.657211,257.200134 156.419693,257.193085 
	C137.254166,257.171387 118.088585,257.184509 98.923027,257.184113 
	C97.141022,257.184082 95.359016,257.184113 93.344025,257.184113 
	C93.344025,243.783554 93.344025,231.018509 93.344025,218.591553 
	C159.382996,218.591553 225.259567,218.591553 291.523560,218.591553 
	C291.523560,226.455933 291.523560,234.791397 291.523560,243.754959 
	C272.397675,243.754959 253.448776,243.754959 233.999878,243.754944 
z"/>
<path fill="#FEFFFE" opacity="1.000000" stroke="none" 
	d="
M105.280701,211.669983 
	C103.156158,211.588165 101.461502,211.691681 99.842224,211.390244 
	C94.917778,210.473572 92.373230,206.766052 93.643684,201.903015 
	C98.562477,183.074890 103.630287,164.285721 108.631882,145.479187 
	C109.823723,140.997711 112.664192,138.897491 117.343155,138.901123 
	C165.320053,138.938416 213.297012,138.940155 261.273895,138.896622 
	C265.497437,138.892792 268.226227,140.737305 269.696411,144.594833 
	C276.804626,163.245636 283.970154,181.875076 290.967316,200.567505 
	C293.252625,206.672577 290.187439,211.092682 283.657532,211.615219 
	C282.001434,211.747742 280.327545,211.668640 278.661835,211.668701 
	C221.022903,211.670517 163.383987,211.670181 105.280701,211.669983 
z"/>
<path fill="#FEFFFE" opacity="1.000000" stroke="none" 
	d="
M121.000000,264.997620 
	C132.789505,264.997620 144.079010,264.997620 155.662750,264.997620 
	C155.662750,299.651581 155.662750,333.855804 155.662750,368.365417 
	C134.856613,368.365417 114.289902,368.365417 93.404022,368.365417 
	C93.404022,334.022217 93.404022,299.947693 93.404022,264.997620 
	C102.356339,264.997620 111.428169,264.997620 121.000000,264.997620 
z"/>
<path fill="#FFFFFF" opacity="1.000000" stroke="none" 
	d="
M197.999969,131.076981 
	C168.083542,131.076981 138.667099,131.076981 108.883324,131.076981 
	C108.883324,123.047668 108.743095,113.748116 108.951523,104.456390 
	C109.036255,100.678589 111.510551,98.406914 115.247505,97.828796 
	C117.043915,97.550888 118.897415,97.576286 120.725090,97.575790 
	C166.349060,97.563354 211.973038,97.562332 257.597015,97.568268 
	C267.943359,97.569611 269.846741,99.474815 269.843994,109.782784 
	C269.842102,116.942337 269.815735,124.101898 269.787842,131.261414 
	C269.786560,131.585831 269.662018,131.909744 269.834381,131.076981 
	C245.900589,131.076981 222.200287,131.076981 197.999969,131.076981 
z"/>
<path fill="#81D743" opacity="1.000000" stroke="none" 
	d="
M402.887329,291.198883 
	C398.744812,312.078125 394.466553,332.559937 390.003632,353.001404 
	C389.756958,354.131378 388.003113,355.716522 386.908630,355.750977 
	C379.281128,355.991272 371.642517,355.877960 363.587769,355.877960 
	C363.587769,334.036469 363.587769,312.528717 363.587769,290.237244 
	C367.525238,290.237244 371.451294,290.183136 375.375397,290.248138 
	C384.488159,290.399139 393.599945,290.607635 402.887329,291.198883 
z"/>
</svg>